<svg xmlns:dc="http://purl.org/dc/elements/1.1/" xmlns:cc="http://creativecommons.org/ns#" xmlns:rdf="http://www.w3.org/1999/02/22-rdf-syntax-ns#" xmlns:svg="http://www.w3.org/2000/svg" xmlns="http://www.w3.org/2000/svg" viewBox="0 0 20 20" shape-rendering="crispEdges"><rect fill="#d0a243" width="20" height="20" x="0" y="0"/><g transform="translate(2 2) scale(0.8)"><path d="M8 15v1H4v1H3v3h14v-3h-1v-1h-4v-1h3v-1h1v-1h1v-3h1V7h-1V4h-1V3h-1V2H5v1H4v1H3v3H2v3h1v3h1v1h1v1h3z" fill="#B68655"/><path d="M5 15v-1H4v-1H3v-3H2V7h1V4h1V3h1V2h10v1h1v1h1v3h1v3h-1v3h-1v1h-1v1H5z" fill="#FFF" fill-opacity=".1"/><path d="M5 8h3v1H5V8zm7 0h3v1h-3V8z" fill="#FFF"/><path d="M6 8h1v1H6V8zm7 0h1v1h-1V8z" fill="#76778b"/><path d="M12 7V6h1V5h1v1h1v1h-1V6h-1v1h-1zM5 7V6h1V5h1v1h1v1H7V6H6v1H5z" fill-rule="evenodd" fill="#574c45"/><path d="M3 13h1v1h1v1h10v-1h1v-1h1v-3h-1v1h-1v1H5v-1H4v-1H3v3z" id="Path" fill="#71635a" fill-opacity="0.75"/><path d="M7 12v1h1v1h4v-1H8v-1H7z" fill="#d29985"/><path d="M5 7h3v2H5V7zm7 0h3v2h-3V7z" fill-rule="evenodd" fill="#FFF" fill-opacity=".2"/><path d="M7 7h1v1H7V7zm7 0h1v1h-1V7z" fill-rule="evenodd" fill="#FFF" fill-opacity=".2"/><path d="M12 7v2h3V7h-3zM8 6H5v1H3v1h1v1h1v1h3V9h1V8h2v1h1v1h3V9h1V8h1V7h-2V6h-3v1H8V6zM5 7v2h3V7H5z" fill-rule="evenodd" fill="#323232"/><path d="M3 7h1v1H3V7zm6 0h2v1H9V7zm7 0h1v1h-1V7z" fill-rule="evenodd" fill="#FFF" fill-opacity=".2"/><path d="M5 16H4v1H3v3h14v-3h-1v-1h-3v1H7v-1H5z" fill="#005b96"/><path d="M10 20v-1h3v1h-3z" fill="#FFF" fill-opacity=".5"/><path d="M5 16H4v1H3v3h1v-1h1v-3zm1 0h1v1h6v-1h1v2H6v-2zm9 0h1v1h1v3h-1v-1h-1v-3z" fill-rule="evenodd" fill="#FFF" fill-opacity=".8"/><path d="M4 4h12V3h-1V2H5v1H4v1z" fill="#71635a"/></g></svg>